<?xml version="1.0" encoding="utf-8"?>
<!DOCTYPE svg PUBLIC "-//W3C//DTD SVG 1.1//EN" "http://www.w3.org/Graphics/SVG/1.1/DTD/svg11.dtd">
<svg version="1.1" id="intro-avatar" xmlns="http://www.w3.org/2000/svg" xmlns:xlink="http://www.w3.org/1999/xlink" x="0px"
	 y="0px" width="46px" height="46px" viewBox="0 0 46 46" enable-background="new 0 0 46 46" xml:space="preserve">
<path fill="#333437" d="M9.776,41.813c1.594-0.445,3.584-0.65,4.931-0.944c0.88-0.194,2.161-0.673,2.588-1.19
	c0.427-0.518,0.168-5.292,0.168-5.292s-0.789-1.229-1.216-2.329c-0.427-1.087-0.893-4.075-0.893-4.075s-0.88-0.013-1.19-1.552
	c-0.323-1.682-0.854-2.355-0.789-3.609c0.065-1.164,0.673-1.229,0.737-1.229c0,0-0.647-1.772-0.725-5.486
	C13.297,11.694,16.66,7.36,23,7.36s9.716,4.347,9.613,8.759c-0.091,3.726-0.725,5.485-0.725,5.485c0.065,0,0.673,0.065,0.737,1.229
	c0.065,1.255-0.453,1.954-0.789,3.636c-0.311,1.539-1.19,1.539-1.19,1.539s-0.466,2.976-0.893,4.063
	c-0.427,1.087-1.216,2.329-1.216,2.329s-0.259,4.774,0.168,5.291c0.427,0.505,1.708,0.996,2.588,1.19
	c1.335,0.294,3.334,0.49,4.931,0.932C42.134,37.651,46,30.779,46,23C46,10.297,35.703,0,23,0S0,10.297,0,23
	C0,30.779,3.865,37.65,9.776,41.813z"/>
</svg>
