<?xml version="1.0" encoding="utf-8"?>
<!-- Generator: Adobe Illustrator 17.0.2, SVG Export Plug-In . SVG Version: 6.00 Build 0)  -->
<!DOCTYPE svg PUBLIC "-//W3C//DTD SVG 1.1//EN" "http://www.w3.org/Graphics/SVG/1.1/DTD/svg11.dtd">
<svg version="1.1" id="Layer_1" xmlns="http://www.w3.org/2000/svg" xmlns:xlink="http://www.w3.org/1999/xlink" x="0px" y="0px"
	 width="384px" height="384px" viewBox="0 0 384 384" enable-background="new 0 0 384 384" xml:space="preserve">
<path fill="#333437" d="M276.8,34.4c50.7,0,91.9,41.3,91.9,92.3c0,26.2-10.9,49.8-28.3,66.6L192,343.1L41,190.6
	c-15.8-16.6-25.6-39.1-25.6-63.9c0-51,41.1-92.3,91.9-92.3c38.2,0,70.9,23.4,84.8,56.8C205.8,57.9,238.6,34.4,276.8,34.4 M276.8,19
	C243,19,212,34.8,192,60.8c-20-26-51-41.8-84.8-41.8C48.1,19,0,67.3,0,126.7c0,27.9,10.6,54.4,29.9,74.6L181.1,354l10.9,11l10.9-11
	l148.3-149.8c21-20.3,32.8-47.9,32.8-77.5C384,67.3,335.9,19,276.8,19L276.8,19z"/>
</svg>
